#!OML:ASF X:\für Bonn\!DataBase\2005_08_10_Bjorn_Final\c3d\bjorn.ASF
:FULLY-SPECIFIED
:DEGREES
54
root 4.76047 24.8806 -7.8276 7.87698 -1.52454 361.238
lowerback 3.9297 0.953351 2.62993
upperback 5.73581 1.27551 0.884014
thorax 3.75141 0.719181 -0.566924
lowerneck 1.58258 -2.53117 -1.86437
upperneck -13.4553 -3.41096 1.21082
head -4.68161 -1.65616 0.894357
rclavicle -1.59028e-014 -9.54166e-015
rhumerus -28.0344 2.98269 -94.5951
rradius 73.4384
rwrist 0.0218806
rhand -21.46 26.7794
rfingers 7.12502
rthumb 4.93017 -3.14327
lclavicle -1.59028e-014 -9.54166e-015
lhumerus -26.3384 -25.119 87.1205
lradius 72.8589
lwrist -7.50456
lhand -39.7111 -27.4217
lfingers 7.12502
lthumb -12.6893 2.17274
rfemur -21.8973 -4.915 12.5804
rtibia 36.2813
rfoot 14.5187 3.63624
rtoes -29.0659
lfemur -21.8717 4.63073 -19.0898
ltibia 30.8155
lfoot 20.3601 -8.60873
ltoes -17.3697
55
root 4.7643 24.7939 -7.73035 8.01644 -1.71628 361.236
lowerback 4.3681 0.944879 2.54006
upperback 5.99855 1.27125 0.885674
thorax 3.77785 0.715474 -0.519742
lowerneck 1.23802 -2.45787 -1.87652
upperneck -13.4249 -3.31364 1.14782
head -4.60391 -1.60502 0.863477
rclavicle 1.74931e-014 -5.56597e-015
rhumerus -27.6138 2.89689 -94.726
rradius 71.9624
rwrist -0.203796
rhand -21.443 26.5623
rfingers 7.12502
rthumb 4.94663 -3.36
lclavicle 1.74931e-014 -5.56597e-015
lhumerus -26.5282 -25.2234 87.4326
lradius 71.9155
lwrist -7.19431
lhand -39.6477 -27.4596
lfingers 7.12502
lthumb -12.6282 2.13865
rfemur -22.7087 -4.89936 12.5943
rtibia 36.2675
rfoot 14.4385 4.15295
rtoes -29.0873
lfemur -22.4281 4.86706 -19.1413
ltibia 30.7329
lfoot 20.195 -8.32794
ltoes -17.3295
56
root 4.7675 24.6937 -7.63204 8.23316 -1.8995 361.232
lowerback 4.75601 0.952947 2.47781
upperback 6.18748 1.28971 0.852806
thorax 3.75804 0.723929 -0.523933
lowerneck 0.937835 -2.40155 -1.81813
upperneck -13.3272 -3.23541 1.08823
head -4.51137 -1.56735 0.822367
rclavicle 1.66979e-014 7.15625e-015
rhumerus -27.4109 2.7212 -94.8813
rradius 70.658
rwrist -0.501742
rhand -21.3657 26.3605
rfingers 7.12502
rthumb 5.02128 -3.56003
lclavicle 1.66979e-014 7.15625e-015
lhumerus -26.8774 -25.4298 87.7462
lradius 70.995
lwrist -6.84833
lhand -39.5417 -27.4006
lfingers 7.12502
lthumb -12.526 2.20392
rfemur -23.5803 -4.93575 12.6247
rtibia 36.2319
rfoot 14.3142 4.72582
rtoes -29.0398
lfemur -23.0672 5.09761 -19.1835
ltibia 30.6974
lfoot 19.9235 -8.04725
ltoes -17.1594
57
root 4.7712 24.5785 -7.53169 8.41934 -2.08142 361.22
lowerback 5.16499 0.971602 2.42111
upperback 6.35418 1.32263 0.83135
thorax 3.70383 0.739028 -0.520605
lowerneck 0.717432 -2.36601 -1.88506
upperneck -13.2372 -3.18072 1.13689
head -4.43366 -1.5402 0.842628
rclavicle -1.74931e-014 -5.56597e-015
rhumerus -27.3889 2.54127 -95.0063
rradius 69.4938
rwrist -0.8691
rhand -21.3214 26.1947
rfingers 7.12502
rthumb 5.06401 -3.72479
lclavicle -1.74931e-014 -5.56597e-015
lhumerus -27.373 -25.6667 88.1171
lradius 70.1331
lwrist -6.3781
lhand -39.4721 -27.5557
lfingers 7.12502
lthumb -12.4588 2.05291
rfemur -24.374 -4.95133 12.658
rtibia 36.1665
rfoot 14.2549 5.26462
rtoes -29.0365
lfemur -23.683 5.26408 -19.186
ltibia 30.7202
lfoot 19.4974 -7.72082
ltoes -16.7719
58
root 4.77419 24.4482 -7.42989 8.63273 -2.24725 361.219
lowerback 5.54344 0.985656 2.34966
upperback 6.48709 1.34894 0.783555
thorax 3.63171 0.750454 -0.536244
lowerneck 0.490164 -2.3189 -1.86715
upperneck -13.088 -3.10827 1.16278
head -4.33534 -1.50752 0.838715
rclavicle 7.15625e-015 -3.18055e-015
rhumerus -27.5135 2.32846 -95.1734
rradius 68.497
rwrist -1.28769
rhand -21.2121 26.0168
rfingers 7.12502
rthumb 5.16958 -3.90015
lclavicle 7.15625e-015 -3.18055e-015
lhumerus -27.9977 -25.9182 88.4782
lradius 69.3055
lwrist -5.94572
lhand -39.5381 -27.8448
lfingers 7.12502
lthumb -12.5224 1.75998
rfemur -25.1491 -4.98109 12.6819
rtibia 36.0722
rfoot 14.2406 5.69931
rtoes -28.776
lfemur -24.3413 5.29419 -19.161
ltibia 30.8048
lfoot 18.9274 -7.27272
ltoes -16.3816
59
root 4.77731 24.3048 -7.32397 8.82363 -2.40478 361.189
lowerback 5.89965 0.994915 2.27179
upperback 6.61924 1.36617 0.785755
thorax 3.5699 0.755873 -0.496256
lowerneck 0.261694 -2.27316 -1.92473
upperneck -12.9533 -3.04443 1.16131
head -4.24178 -1.47406 0.839591
rclavicle -3.10104e-014 -1.03368e-014
rhumerus -27.7597 2.20006 -95.2735
rradius 67.6571
rwrist -1.73877
rhand -21.0926 25.7632
rfingers 7.12502
rthumb 5.2849 -4.15088
lclavicle -3.10104e-014 -1.03368e-014
lhumerus -28.648 -26.0008 88.943
lradius 68.5559
lwrist -5.51352
lhand -39.5337 -28.2178
lfingers 7.12502
lthumb -12.5183 1.38727
rfemur -25.8321 -4.97611 12.7294
rtibia 35.958
rfoot 14.2429 6.0694
rtoes -28.1198
lfemur -24.9617 5.32827 -19.0861
ltibia 30.9315
lfoot 18.2688 -6.8818
ltoes -15.8181
60
root 4.77814 24.1479 -7.21432 9.00101 -2.5143 361.134
lowerback 6.19055 0.986883 2.19712
upperback 6.76943 1.35794 0.785563
thorax 3.5633 0.74932 -0.458259
lowerneck 0.113197 -2.23992 -1.85952
upperneck -12.9273 -3.00909 1.03022
head -4.20684 -1.45423 0.780034
rclavicle 6.36111e-015 8.74653e-015
rhumerus -28.0406 2.06685 -95.3975
rradius 66.8498
rwrist -2.12818
rhand -20.9918 25.635
rfingers 7.12502
rthumb 5.38228 -4.27661
lclavicle 6.36111e-015 8.74653e-015
lhumerus -29.2786 -26.0749 89.3997
lradius 67.8089
lwrist -5.09441
lhand -39.446 -28.1446
lfingers 7.12502
lthumb -12.4337 1.46559
rfemur -26.445 -4.94298 12.8086
rtibia 35.8522
rfoot 14.1803 6.44269
rtoes -27.5984
lfemur -25.5474 5.33636 -18.9573
ltibia 31.0818
lfoot 17.5265 -6.62308
ltoes -15.6638
61
root 4.78013 23.9793 -7.0997 9.17271 -2.61481 361.093
lowerback 6.42313 0.984816 2.14742
upperback 6.93232 1.35708 0.752531
thorax 3.6046 0.748744 -0.466866
lowerneck -0.0168177 -2.25258 -1.65899
upperneck -12.9619 -3.0444 0.786016
head -4.20025 -1.47067 0.662976
rclavicle -2.3059e-014 3.97569e-015
rhumerus -28.3699 1.8412 -95.5243
rradius 66.0437
rwrist -2.43759
rhand -20.8939 25.7839
rfingers 7.12502
rthumb 5.47683 -4.12533
lclavicle -2.3059e-014 3.97569e-015
lhumerus -29.9616 -26.2297 89.8544
lradius 67.0212
lwrist -4.63979
lhand -39.4307 -27.8438
lfingers 7.12502
lthumb -12.4189 1.76724
rfemur -27.0022 -4.86921 12.8472
rtibia 35.7761
rfoot 14.0741 6.72936
rtoes -26.9169
lfemur -26.0768 5.19129 -18.802
ltibia 31.243
lfoot 16.7186 -6.1823
ltoes -15.4136
62
root 4.78051 23.7985 -6.98157 9.39366 -2.71115 361.054
lowerback 6.50814 0.982444 2.04621
upperback 7.13105 1.34858 0.748578
thorax 3.76371 0.742322 -0.412846
lowerneck -0.114913 -2.26006 -1.51219
upperneck -13.1417 -3.07619 0.55072
head -4.25212 -1.48244 0.560764
rclavicle 7.95139e-016 1.59028e-015
rhumerus -28.6854 1.66223 -95.6129
rradius 65.3618
rwrist -2.7858
rhand -20.8028 25.8489
rfingers 7.12502
rthumb 5.56476 -4.05801
lclavicle 7.95139e-016 1.59028e-015
lhumerus -30.6073 -26.3162 90.3472
lradius 66.2801
lwrist -3.92424
lhand -39.3908 -27.7298
lfingers 7.12502
lthumb -12.3804 1.88362
rfemur -27.5924 -4.73458 12.876
rtibia 35.7601
rfoot 13.8834 6.92742
rtoes -26.8063
lfemur -26.6021 5.07163 -18.6463
ltibia 31.3942
lfoot 15.8887 -5.82589
ltoes -15.6929
63
root 4.77954 23.6094 -6.85822 9.64834 -2.78669 360.97
lowerback 6.48851 0.975283 1.99365
upperback 7.34648 1.33292 0.729021
thorax 4.00077 0.735335 -0.399516
lowerneck -0.368542 -2.25883 -1.27667
upperneck -13.2553 -3.09095 0.310996
head -4.25161 -1.49063 0.437481
rclavicle -1.19271e-015 4.77083e-015
rhumerus -28.9895 1.46745 -95.7388
rradius 64.6897
rwrist -3.16543
rhand -20.8369 25.8057
rfingers 7.12502
rthumb 5.53186 -4.1021
lclavicle -1.19271e-015 4.77083e-015
lhumerus -31.2821 -26.3763 90.8105
lradius 65.5376
lwrist -2.91847
lhand -39.3245 -27.8028
lfingers 7.12502
lthumb -12.3165 1.81444
rfemur -28.1893 -4.60592 12.9582
rtibia 35.8108
rfoot 13.6959 7.12317
rtoes -27.1914
lfemur -27.0867 4.94519 -18.4258
ltibia 31.5306
lfoot 14.9871 -5.53698
ltoes -16.924
64
root 4.77845 23.4091 -6.7309 9.94777 -2.83577 360.888
lowerback 6.36169 0.970235 1.94299
upperback 7.56945 1.31771 0.708388
thorax 4.3063 0.729034 -0.386147
lowerneck -0.603095 -2.24555 -1.09563
upperneck -13.4718 -3.08623 0.13719
head -4.29072 -1.48901 0.34656
rclavicle 2.50469e-014 -3.18055e-015
rhumerus -29.3225 1.21383 -95.8524
rradius 64.0937
rwrist -3.56183
rhand -21.0584 25.7501
rfingers 7.12502
rthumb 5.318 -4.16317
lclavicle 2.50469e-014 -3.18055e-015
lhumerus -32.0205 -26.3972 91.3023
lradius 64.8283
lwrist -1.66915
lhand -39.2841 -28.1139
lfingers 7.12502
lthumb -12.2776 1.5057
rfemur -28.8041 -4.40276 13.0123
rtibia 35.9111
rfoot 13.5394 7.17589
rtoes -27.0855
lfemur -27.5697 4.78988 -18.2087
ltibia 31.662
lfoot 14.178 -5.13741
ltoes -18.9279
65
root 4.7775 23.1965 -6.59802 10.2016 -2.91131 360.801
lowerback 6.18054 0.976089 1.90165
upperback 7.85339 1.31571 0.672564
thorax 4.70887 0.730958 -0.392026
lowerneck -0.83644 -2.21337 -0.82528
upperneck -13.8392 -3.06333 -0.0997282
head -4.38843 -1.47941 0.219803
rclavicle 6.75868e-015 1.19271e-015
rhumerus -29.6628 0.877963 -95.966
rradius 63.5997
rwrist -3.89496
rhand -21.3993 25.627
rfingers 7.12502
rthumb 4.98881 -4.29425
lclavicle 6.75868e-015 1.19271e-015
lhumerus -32.6927 -26.4092 91.768
lradius 64.0797
lwrist -0.0408298
lhand -39.1269 -28.4834
lfingers 7.12502
lthumb -12.126 1.14522
rfemur -29.3369 -4.20438 13.066
rtibia 36.0428
rfoot 13.5222 7.20974
rtoes -26.6753
lfemur -27.959 4.59076 -17.9621
ltibia 31.8071
lfoot 13.5764 -4.51596
ltoes -20.7724
66
root 4.77564 22.9708 -6.46009 10.3961 -3.02533 360.705
lowerback 5.95797 0.999753 1.85238
upperback 8.20979 1.33643 0.612634
thorax 5.21461 0.745321 -0.41681
lowerneck -0.918241 -2.18954 -0.416088
upperneck -14.4918 -3.05522 -0.341892
head -4.62491 -1.48283 0.0716639
rclavicle -1.2921e-014 3.97569e-015
rhumerus -30.0143 0.509863 -96.1054
rradius 63.2785
rwrist -4.22906
rhand -21.7427 25.4733
rfingers 7.12502
rthumb 4.6572 -4.45549
lclavicle -1.2921e-014 3.97569e-015
lhumerus -33.3681 -26.2714 92.1614
lradius 63.5049
lwrist 1.8264
lhand -38.819 -28.7751
lfingers 7.12502
lthumb -11.8291 0.870839
rfemur -29.7583 -3.95064 13.1051
rtibia 36.1739
rfoot 13.6653 7.13677
rtoes -25.4226
lfemur -28.248 4.35648 -17.6818
ltibia 31.9816
lfoot 12.894 -3.76722
ltoes -22.9366
67
root 4.77385 22.7322 -6.321 10.589 -3.09677 360.636
lowerback 5.63746 1.00093 1.75741
upperback 8.64836 1.32426 0.55407
thorax 5.86462 0.741532 -0.41103
lowerneck -0.981349 -2.15045 0.0454919
upperneck -15.3645 -3.02844 -0.573603
head -4.95231 -1.48075 -0.0827004
rclavicle 1.51076e-014 1.15295e-014
rhumerus -30.2818 0.145838 -96.2338
rradius 63.0634
rwrist -4.56182
rhand -22.0877 25.3616
rfingers 7.12502
rthumb 4.32412 -4.57423
lclavicle 1.51076e-014 1.15295e-014
lhumerus -33.9343 -25.8717 92.4679
lradius 63.0793
lwrist 3.78708
lhand -38.3396 -28.7043
lfingers 7.12502
lthumb -11.3668 0.967651
rfemur -30.1341 -3.79291 13.1375
rtibia 36.3127
rfoot 13.8031 7.18604
rtoes -24.608
lfemur -28.5252 3.9804 -17.3743
ltibia 32.2012
lfoot 12.111 -2.8383
ltoes -24.5756
68
root 4.77053 22.4862 -6.18266 10.6996 -3.09296 360.563
lowerback 5.38515 0.980018 1.669
upperback 9.11049 1.28593 0.495117
thorax 6.50576 0.72461 -0.410815
lowerneck -1.00166 -2.11205 0.566547
upperneck -16.642 -3.01193 -0.848854
head -4.85004 -1.48257 -0.238561
rclavicle 2.38542e-015 1.98785e-015
rhumerus -30.5639 -0.318568 -96.3517
rradius 62.8736
rwrist -4.88743
rhand -22.391 25.4898
rfingers 7.12502
rthumb 4.03119 -4.45184
lclavicle 2.38542e-015 1.98785e-015
lhumerus -34.4963 -25.3972 92.7418
lradius 62.6691
lwrist 5.84335
lhand -37.9667 -28.3671
lfingers 7.12502
lthumb -11.0071 1.32429
rfemur -30.3644 -3.60255 13.1542
rtibia 36.4429
rfoot 13.9339 7.09336
rtoes -24.1677
lfemur -28.7244 3.45023 -16.9984
ltibia 32.5084
lfoot 11.4457 -1.70947
ltoes -26.1492
